name rise30.6535peak61.5555fall82.9339.mot
datacolumns 19
datarows 12
range 13.81994300000000 13.83827900000000
endheader
time	ground_force1_vx	ground_force1_vy	ground_force1_vz	ground_force1_px	ground_force1_py	ground_force1_pz	ground_force2_vx	ground_force2_vy	ground_force2_vz	ground_force2_px	ground_force2_py	ground_force2_pz	ground_torque1_x	ground_torque1_y	ground_torque1_z	ground_torque2_x	ground_torque2_y	ground_torque2_z	
13.81994300000000	58.82586400000000	788.53446599999995	63.35347300000000	0.35655200000000	0.00000000000000	0.11013200000000	0.00000000000000	0.00000000000000	0.00000000000000	0.00000000000000	0.00000000000000	0.00000000000000	0.00000000000000	31.48440200000000	0.00000000000000	0.00000000000000	0.00000000000000	0.00000000000000	
13.82161400000000	58.28061800000000	790.70017199999995	63.34484400000000	0.35568800000000	0.00000000000000	0.11008100000000	0.00000000000000	0.00000000000000	0.00000000000000	0.00000000000000	0.00000000000000	0.00000000000000	0.00000000000000	31.46243200000000	0.00000000000000	0.00000000000000	0.00000000000000	0.00000000000000	
13.82328700000000	57.73429200000000	792.71779300000003	63.33146200000000	0.35483300000000	0.00000000000000	0.11003100000000	0.00000000000000	0.00000000000000	0.00000000000000	0.00000000000000	0.00000000000000	0.00000000000000	0.00000000000000	31.43915900000000	0.00000000000000	0.00000000000000	0.00000000000000	0.00000000000000	
13.82494300000000	57.18704800000000	794.58681700000000	63.31329600000000	0.35398800000000	0.00000000000000	0.10998200000000	0.00000000000000	0.00000000000000	0.00000000000000	0.00000000000000	0.00000000000000	0.00000000000000	0.00000000000000	31.41454200000000	0.00000000000000	0.00000000000000	0.00000000000000	0.00000000000000	
13.82661000000000	56.63900500000000	796.30692799999997	63.29026500000000	0.35315100000000	0.00000000000000	0.10993300000000	0.00000000000000	0.00000000000000	0.00000000000000	0.00000000000000	0.00000000000000	0.00000000000000	0.00000000000000	31.38850700000000	0.00000000000000	0.00000000000000	0.00000000000000	0.00000000000000	
13.82829000000000	56.09024600000000	797.87801600000000	63.26224800000000	0.35232200000000	0.00000000000000	0.10988500000000	0.00000000000000	0.00000000000000	0.00000000000000	0.00000000000000	0.00000000000000	0.00000000000000	0.00000000000000	31.36094400000000	0.00000000000000	0.00000000000000	0.00000000000000	0.00000000000000	
13.82994300000000	55.54081600000000	799.30019000000004	63.22908100000000	0.35149900000000	0.00000000000000	0.10983700000000	0.00000000000000	0.00000000000000	0.00000000000000	0.00000000000000	0.00000000000000	0.00000000000000	0.00000000000000	31.33171800000000	0.00000000000000	0.00000000000000	0.00000000000000	0.00000000000000	
13.83160700000000	54.99073100000000	800.57377799999995	63.19057100000000	0.35068100000000	0.00000000000000	0.10979100000000	0.00000000000000	0.00000000000000	0.00000000000000	0.00000000000000	0.00000000000000	0.00000000000000	0.00000000000000	31.30066600000000	0.00000000000000	0.00000000000000	0.00000000000000	0.00000000000000	
13.83327300000000	54.43997800000000	801.69933600000002	63.14649100000000	0.34986700000000	0.00000000000000	0.10974400000000	0.00000000000000	0.00000000000000	0.00000000000000	0.00000000000000	0.00000000000000	0.00000000000000	0.00000000000000	31.26760300000000	0.00000000000000	0.00000000000000	0.00000000000000	0.00000000000000	
13.83494500000000	53.88852200000000	802.67765399999996	63.09659300000000	0.34905600000000	0.00000000000000	0.10969900000000	0.00000000000000	0.00000000000000	0.00000000000000	0.00000000000000	0.00000000000000	0.00000000000000	0.00000000000000	31.23232700000000	0.00000000000000	0.00000000000000	0.00000000000000	0.00000000000000	
13.83661200000000	53.33630700000000	803.50975400000004	63.04061200000000	0.34824700000000	0.00000000000000	0.10965400000000	0.00000000000000	0.00000000000000	0.00000000000000	0.00000000000000	0.00000000000000	0.00000000000000	0.00000000000000	31.19461900000000	0.00000000000000	0.00000000000000	0.00000000000000	0.00000000000000	
13.83827900000000	52.78326200000000	804.19689800000003	62.97826700000000	0.34743900000000	0.00000000000000	0.10961000000000	0.00000000000000	0.00000000000000	0.00000000000000	0.00000000000000	0.00000000000000	0.00000000000000	0.00000000000000	31.15425000000000	0.00000000000000	0.00000000000000	0.00000000000000	0.00000000000000	
